<svg xmlns="http://www.w3.org/2000/svg" width="263" height="100" viewBox="0 0 263 100">
  <g fill="none" fill-rule="evenodd">
    <path fill="#B3DC20" fill-rule="nonzero" d="M21.28488,0.5915 C24.2332533,0.5915 27.23228,0.8365 30.1824,1.33 C33.1307733,1.82175 35.8346133,2.905 38.19436,4.5325 C40.6030133,6.1565 42.5191067,8.47 44.0439467,11.52375 C45.56704,14.5775 46.3041333,18.5675 46.3041333,23.59 L46.3041333,53.83 C44.53476,54.17475 42.96276,54.3725 41.5357333,54.4705 C40.1104533,54.5685 38.8808,54.6175 37.80136,54.6175 C36.5220864,54.6121597 35.2433661,54.5631313 33.9674267,54.4705 C32.5404,54.37075 30.9684,54.12575 29.1990267,53.83 L29.1990267,25.4135 C29.1990267,21.81725 28.51084,19.257 27.1833733,17.731 C25.8559067,16.20325 23.7913467,15.41575 21.0386,15.41575 C20.2483932,15.4119121 19.4593721,15.4774965 18.6806,15.61175 C17.8422,15.7605 17.30248,15.90925 17.1068533,16.0055 L17.1068533,53.879 C15.3357333,54.22375 13.7637333,54.4215 12.3384533,54.5195 C10.9131733,54.6175 9.68352,54.6665 8.60233333,54.6665 C7.3230597,54.6611597 6.04433947,54.6121313 4.7684,54.5195 C3.34312,54.4215 1.76937333,54.17475 0,53.879 L0,4.137 C2.358,3.3495 5.21030667,2.51125 8.60233333,1.7745 C11.99436,0.9835 16.2212933,0.58975 21.2831333,0.58975 L21.28488,0.5915 Z M71.76704,33.194 C72.5041333,35.952 73.7826933,37.9225 75.64988,39.0565 C77.5188133,40.187 79.9274667,40.7785 82.9754,40.7785 C84.9404,40.7785 87.10452,40.5335 89.5603333,40.089 C92.0105669,39.5952618 94.4127439,38.8867019 96.7391333,37.9715 C97.6718533,39.74425 98.5085067,41.81275 99.1966933,44.226 C99.88488,46.63925 100.27788,49.1995 100.375693,51.8105 C94.3793867,54.026 88.2346133,55.16 81.9920267,55.16 C77.1258133,55.16 72.9966933,54.4705 69.5068533,53.1405 C66.0152667,51.8105 63.2136133,49.938 61.0023333,47.5265 C58.7910533,45.1115 57.2173067,42.2555 56.13612,38.95675 C55.10384,35.65625 54.56412,32.06175 54.56412,28.12075 C54.56412,24.2795 55.10384,20.68325 56.1850267,17.2865 C57.26796,13.888 58.8888667,10.983 61.05124,8.47175 C63.2136133,5.95875 65.9174533,3.99 69.1121067,2.56025 C72.3574133,1.13225 76.0935333,0.39375 80.41828,0.39375 C84.00768,0.39375 87.1534267,0.98525 89.95508,2.2155 C92.7567333,3.4475 95.11648,5.1205 97.08148,7.23975 C99.0482267,9.35725 100.522413,11.91925 101.55644,14.92225 C102.586973,17.927 103.12844,21.17675 103.12844,24.67325 C103.12844,26.49675 103.030627,28.12075 102.883907,29.5995 C102.73544,31.0275 102.538067,32.2595 102.440253,33.194 L71.7705333,33.194 L71.76704,33.194 Z M79.87856,13.2475 C77.71444,13.2475 75.8472533,13.937 74.32416,15.267 C72.7504133,16.597 71.8648533,18.7145 71.62032,21.5215 L87.7927067,21.5215 C87.64424,19.159 86.9560533,17.1885 85.6285867,15.61175 C84.2522133,14.03675 82.33612,13.24925 79.87856,13.24925 L79.87856,13.2475 Z M186.840933,39.69525 L205.914533,39.69525 C206.25688,41.02525 206.454253,42.3045 206.552067,43.4385 C206.746869,45.6830151 206.746869,47.9402349 206.552067,50.18475 C206.454253,51.36775 206.207973,52.647 205.912787,53.977 L173.028293,53.977 C172.167906,53.9774646 171.342624,53.6352304 170.734238,53.0256833 C170.125852,52.4161362 169.78427,51.5892796 169.784733,50.72725 L169.8808,1.67475 C171.318103,1.32895071 172.780611,1.09838847 174.254453,0.98525 C175.643429,0.847900979 177.038513,0.781897903 178.434227,0.7875 C179.71104,0.7875 181.08916,0.8365 182.563347,0.98525 C184.037533,1.13225 185.51172,1.379 186.888093,1.67475 L186.839187,39.69525 L186.840933,39.69525 Z M159.41128,15.7605 C156.709187,10.2935 151.89188,10.4895 148.892853,11.42575 C145.05892,12.60875 142.60136,16.15425 143.485173,20.881 C143.878173,22.8515 144.321827,25.6095 144.321827,28.0735 C144.321827,32.3085 143.584733,35.60725 142.157707,37.8735 C140.732427,40.187 138.521147,41.321 135.52212,41.321 C132.573747,41.321 130.36072,40.187 128.93544,37.8735 C127.51016,35.55825 126.821973,32.3085 126.821973,28.0735 C126.821973,23.73875 127.51016,20.783 128.93544,18.5185 C130.214,16.45 132.081187,15.169 134.638307,14.97125 C139.65124,14.5775 141.520173,11.13 141.520173,6.944 C141.520173,4.284 139.356053,0.49175 134.587653,0.39375 C130.36072,0.24675 127.559067,1.13225 124.315507,2.46225 C121.0702,3.79225 118.36636,5.66475 116.203987,8.07625 C113.992707,10.49125 112.370053,13.44525 111.23996,16.84375 C110.10812,20.24225 109.5684,24.0345 109.5684,28.12075 C109.5684,32.15975 110.109867,35.854 111.23996,39.2035 C112.370053,42.55125 113.992707,45.40725 116.203987,47.8205 C118.415267,50.2355 121.119107,52.0555 124.315507,53.3365 C127.559067,54.6175 131.295187,55.258 135.52212,55.258 C139.848613,55.258 143.584733,54.6175 146.828293,53.3365 C150.071853,52.05725 152.775693,50.23375 154.938067,47.8205 C157.102187,45.40725 158.773747,42.553 159.90384,39.2035 C161.033933,35.854 161.5754,32.15975 161.5754,28.12075 C161.5754,23.93475 160.738747,18.46775 159.41128,15.7605 Z M259.591347,15.7605 C256.887507,10.2935 252.0702,10.4895 249.071173,11.42575 C245.23724,12.60875 242.77968,16.15425 243.66524,20.881 C244.05824,22.8515 244.500147,25.6095 244.500147,28.0735 C244.500147,32.3085 243.763053,35.60725 242.337773,37.8735 C240.912493,40.187 238.699467,41.321 235.70044,41.321 C232.752067,41.321 230.540787,40.187 229.115507,37.8735 C227.68848,35.55825 227.00204,32.3085 227.00204,28.0735 C227.00204,23.73875 227.68848,20.783 229.115507,18.5185 C230.39232,16.45 232.259507,15.169 234.816627,14.97125 C239.82956,14.5775 241.698493,11.13 241.698493,6.944 C241.698493,4.284 239.53612,0.49175 234.76772,0.39375 C230.540787,0.24675 227.739133,1.13225 224.493827,2.46225 C221.250267,3.79225 218.546427,5.66475 216.384053,8.07625 C214.171027,10.49125 212.55012,13.44525 211.41828,16.84375 C210.288187,20.24225 209.74672,24.0345 209.74672,28.12075 C209.74672,32.15975 210.288187,35.854 211.41828,39.2035 C212.55012,42.55125 214.171027,45.40725 216.384053,47.8205 C218.595333,50.2355 221.299173,52.0555 224.493827,53.3365 C227.739133,54.6175 231.473507,55.258 235.702187,55.258 C240.026933,55.258 243.763053,54.6175 247.00836,53.3365 C250.25192,52.05725 252.95576,50.23375 255.118133,47.8205 C257.280507,45.40725 258.952067,42.553 260.08216,39.2035 C261.214,35.854 261.75372,32.15975 261.75372,28.12075 C261.802627,23.93475 260.96772,18.46775 259.591347,15.7605 Z"/>
    <path fill="#FFF" d="M26.0030741,93.5714286 L11.7366142,93.5714286 L9.67753747,99.3076923 L1,99.3076923 L14.2369216,64.6923077 L23.6008179,64.6923077 L36.8867651,99.3076923 L28.0621508,99.3076923 L26.0030741,93.5714286 Z M23.3066641,86.0054945 L20.8553824,79.1318681 C19.7768184,76.2637363 18.9924082,74.0879121 18.9433826,74.0384615 L18.7963057,74.0384615 C18.74728,74.0879121 17.9628699,76.2142857 16.8843059,79.0824176 L14.4330241,86.0054945 L23.3066641,86.0054945 Z M65.5597583,86.8956044 L73.6489882,89.0714286 C71.0996551,95.7967033 64.7753481,100 57.3234516,100 C47.0770937,100 39.5271459,92.7307692 39.5271459,81.9010989 C39.5271459,71.3681319 47.0770937,64 57.3234516,64 C65.2165789,64 71.0016038,68.4010989 73.3058087,73.989011 L65.1675532,76.2142857 C63.4026303,73.4450549 60.6081691,71.8131868 56.9312465,71.8131868 C51.342324,71.8131868 47.8124783,75.967033 47.8124783,82 C47.8124783,88.1318681 51.5874522,92.1373626 56.8822208,92.1373626 C61.3925793,92.1373626 64.1870405,89.7637363 65.5597583,86.8956044 Z M101.782699,93.5714286 L87.5162394,93.5714286 L85.4571627,99.3076923 L76.7796252,99.3076923 L90.0165468,64.6923077 L99.3804432,64.6923077 L112.66639,99.3076923 L103.841776,99.3076923 L101.782699,93.5714286 Z M99.0862894,86.0054945 L96.6350076,79.1318681 C95.5564436,76.2637363 94.7720335,74.0879121 94.7230078,74.0384615 L94.5759309,74.0384615 C94.5269053,74.0879121 93.7424951,76.2142857 92.6639311,79.0824176 L90.2126494,86.0054945 L99.0862894,86.0054945 Z M118.150258,64.6923077 L132.759897,64.6923077 C143.006255,64.6923077 150.850357,71.7142857 150.850357,82.1483516 C150.850357,92.6318681 142.95723,99.3076923 132.808923,99.3076923 L118.150258,99.3076923 L118.150258,64.6923077 Z M126.386565,91.5934066 L132.318667,91.5934066 C137.417333,91.5934066 142.565024,88.9725275 142.565024,82.1483516 C142.565024,75.3736264 137.417333,72.4065934 132.318667,72.4065934 L126.386565,72.4065934 L126.386565,91.5934066 Z M157.069609,99.3076923 L157.069609,64.6923077 L182.072683,64.6923077 L182.072683,72.4065934 L165.305916,72.4065934 L165.305916,78.3406593 L177.660376,78.3406593 L177.660376,85.2637363 L165.305916,85.2637363 L165.305916,91.5934066 L182.317811,91.5934066 L182.317811,99.3076923 L157.069609,99.3076923 Z M215.550188,99.3076923 L215.550188,90.8516484 C215.550188,82.6428571 215.64824,78.5879121 215.64824,78.5384615 C215.501163,78.5879121 213.834291,81.7032967 212.16742,84.6703297 L208.833676,90.7527473 L204.225267,90.7527473 L200.891523,84.7692308 C199.175626,81.7032967 197.55778,78.5879121 197.508755,78.5384615 L197.361678,78.5384615 C197.361678,78.5879121 197.459729,82.6428571 197.459729,90.8516484 L197.459729,99.3076923 L189.223422,99.3076923 L189.223422,64.6923077 L197.949985,64.6923077 L206.578497,80.1703297 L206.725574,80.1703297 L215.403112,64.6923077 L223.786495,64.6923077 L223.786495,99.3076923 L215.550188,99.3076923 Z M250.204309,85.6593407 L250.204309,99.3076923 L241.968002,99.3076923 L241.968002,85.6593407 L229.172312,64.6923077 L238.683285,64.6428571 L243.978053,74.0879121 C245.203694,76.2637363 246.233233,78.1428571 246.282258,78.1923077 L246.429335,78.1923077 C246.478361,78.1428571 247.507899,76.2142857 248.73354,74.0879121 L254.224411,64.6923077 L263,64.6923077 L250.204309,85.6593407 Z"/>
  </g>
</svg>
