<svg xmlns="http://www.w3.org/2000/svg" width="216" height="82" viewBox="0 0 216 82">
  <g fill="none" fill-rule="evenodd">
    <path fill="#B3DC20" fill-rule="nonzero" d="M17.4666,0.485875 C19.8860667,0.485875 22.3471,0.687125 24.768,1.0925 C27.1874667,1.4964375 29.4062667,2.38625 31.3427,3.723125 C33.3192667,5.057125 34.8916333,6.9575 36.1429333,9.4659375 C37.3928,11.974375 37.9976667,15.251875 37.9976667,19.3775 L37.9976667,44.2175 C36.5457,44.5006875 35.2557,44.663125 34.0846667,44.743625 C32.9150667,44.824125 31.906,44.864375 31.0202,44.864375 C29.9704144,44.8599884 28.9210829,44.819715 27.8740333,44.743625 C26.703,44.6616875 25.413,44.4604375 23.9610333,44.2175 L23.9610333,20.875375 C23.9610333,17.9213125 23.3963,15.81825 22.3069667,14.56475 C21.2176333,13.3098125 19.5234333,12.6629375 17.2645,12.6629375 C16.6160479,12.6597849 15.9685687,12.7136579 15.3295,12.8239375 C14.6415,12.946125 14.1986,13.0683125 14.0380667,13.147375 L14.0380667,44.25775 C12.5846667,44.5409375 11.2946667,44.703375 10.1250667,44.783875 C8.95546667,44.864375 7.9464,44.904625 7.05916667,44.904625 C6.00938105,44.9002384 4.96004957,44.859965 3.913,44.783875 C2.7434,44.703375 1.45196667,44.5006875 0,44.25775 L0,3.39825 C1.935,2.751375 4.27563333,2.0628125 7.05916667,1.457625 C9.8427,0.807875 13.3113667,0.4844375 17.4651667,0.4844375 L17.4666,0.485875 Z M58.8928,27.2665 C59.4976667,29.532 60.5468667,31.150625 62.0791,32.082125 C63.6127667,33.01075 65.5893333,33.496625 68.0905,33.496625 C69.703,33.496625 71.4789,33.295375 73.4941667,32.93025 C75.5048545,32.5246793 77.4761067,31.942648 79.3851667,31.190875 C80.1505667,32.6470625 80.8371333,34.3461875 81.4018667,36.3285 C81.9666,38.3108125 82.2891,40.413875 82.3693667,42.558625 C77.4487333,44.3785 72.4062667,45.31 67.2835333,45.31 C63.2902667,45.31 59.9018667,44.743625 57.0380667,43.651125 C54.1728333,42.558625 51.8737667,41.0205 50.0591667,39.039625 C48.2445667,37.055875 46.9531333,34.709875 46.0659,32.0001875 C45.2188,29.2890625 44.7759,26.3364375 44.7759,23.0991875 C44.7759,19.943875 45.2188,16.9898125 46.1060333,14.199625 C46.9947,11.408 48.3248333,9.02175 50.0993,6.9589375 C51.8737667,4.8946875 54.0925667,3.2775 56.7141333,2.1030625 C59.3772667,0.9300625 62.4431667,0.3234375 65.9921,0.3234375 C68.9376,0.3234375 71.5190333,0.8093125 73.8181,1.819875 C76.1171667,2.831875 78.0536,4.206125 79.6661,5.9469375 C81.2800333,7.6863125 82.4897667,9.7908125 83.3383,12.2575625 C84.1839667,14.72575 84.6283,17.3951875 84.6283,20.2673125 C84.6283,21.7651875 84.5480333,23.0991875 84.4276333,24.313875 C84.3058,25.486875 84.1438333,26.498875 84.0635667,27.2665 L58.8956667,27.2665 L58.8928,27.2665 Z M65.5492,10.881875 C63.7733,10.881875 62.2410667,11.44825 60.9912,12.54075 C59.6997667,13.63325 58.9730667,15.372625 58.7724,17.678375 L72.0436333,17.678375 C71.9218,15.73775 71.3570667,14.119125 70.2677333,12.8239375 C69.1382667,11.5301875 67.5659,10.8833125 65.5492,10.8833125 L65.5492,10.881875 Z M153.323667,32.6068125 L168.975667,32.6068125 C169.2566,33.6993125 169.418567,34.750125 169.498833,35.681625 C169.65869,37.5253338 169.65869,39.3794787 169.498833,41.2231875 C169.418567,42.1949375 169.216467,43.24575 168.974233,44.33825 L141.988867,44.33825 C141.282823,44.3386316 140.605588,44.0575107 140.10634,43.5568113 C139.607092,43.0561119 139.326786,42.3769083 139.327167,41.6688125 L139.406,1.3756875 C140.585466,1.09163808 141.785616,0.902247676 142.995067,0.8093125 C144.134875,0.69649009 145.279696,0.642273278 146.425033,0.646875 C147.4728,0.646875 148.6037,0.687125 149.813433,0.8093125 C151.023167,0.9300625 152.2329,1.13275 153.362367,1.3756875 L153.322233,32.6068125 L153.323667,32.6068125 Z M130.8146,12.946125 C128.597233,8.455375 124.6441,8.616375 122.183067,9.3854375 C119.0369,10.3571875 117.0202,13.2695625 117.745467,17.15225 C118.067967,18.770875 118.432033,21.036375 118.432033,23.060375 C118.432033,26.539125 117.827167,29.2488125 116.656133,31.110375 C115.486533,33.01075 113.671933,33.94225 111.2109,33.94225 C108.791433,33.94225 106.9754,33.01075 105.8058,31.110375 C104.6362,29.2085625 104.071467,26.539125 104.071467,23.060375 C104.071467,19.4996875 104.6362,17.07175 105.8058,15.211625 C106.855,13.5125 108.387233,12.46025 110.485633,12.2978125 C114.5993,11.974375 116.132967,9.1425 116.132967,5.704 C116.132967,3.519 114.357067,0.4039375 110.444067,0.3234375 C106.9754,0.2026875 104.676333,0.9300625 102.014633,2.0225625 C99.3515,3.1150625 97.1327,4.6531875 95.3582333,6.6340625 C93.5436333,8.6178125 92.2120667,11.0443125 91.2847,13.8359375 C90.3559,16.6275625 89.913,19.742625 89.913,23.0991875 C89.913,26.4169375 90.3573333,29.4515 91.2847,32.202875 C92.2120667,34.9528125 93.5436333,37.2988125 95.3582333,39.281125 C97.1728333,41.264875 99.3916333,42.759875 102.014633,43.812125 C104.676333,44.864375 107.742233,45.3905 111.2109,45.3905 C114.761267,45.3905 117.827167,44.864375 120.488867,43.812125 C123.150567,42.7613125 125.369367,41.2634375 127.143833,39.281125 C128.919733,37.2988125 130.291433,34.95425 131.2188,32.202875 C132.146167,29.4515 132.5905,26.4169375 132.5905,23.0991875 C132.5905,19.6606875 131.903933,15.1699375 130.8146,12.946125 Z M213.023433,12.946125 C210.804633,8.455375 206.8515,8.616375 204.390467,9.3854375 C201.2443,10.3571875 199.2276,13.2695625 199.9543,17.15225 C200.2768,18.770875 200.639433,21.036375 200.639433,23.060375 C200.639433,26.539125 200.034567,29.2488125 198.864967,31.110375 C197.695367,33.01075 195.879333,33.94225 193.4183,33.94225 C190.998833,33.94225 189.184233,33.01075 188.014633,31.110375 C186.8436,29.2085625 186.2803,26.539125 186.2803,23.060375 C186.2803,19.4996875 186.8436,17.07175 188.014633,15.211625 C189.0624,13.5125 190.594633,12.46025 192.693033,12.2978125 C196.8067,11.974375 198.340367,9.1425 198.340367,5.704 C198.340367,3.519 196.5659,0.4039375 192.6529,0.3234375 C189.184233,0.2026875 186.885167,0.9300625 184.222033,2.0225625 C181.560333,3.1150625 179.341533,4.6531875 177.567067,6.6340625 C175.751033,8.6178125 174.4209,11.0443125 173.4921,13.8359375 C172.564733,16.6275625 172.1204,19.742625 172.1204,23.0991875 C172.1204,26.4169375 172.564733,29.4515 173.4921,32.202875 C174.4209,34.9528125 175.751033,37.2988125 177.567067,39.281125 C179.381667,41.264875 181.600467,42.759875 184.222033,43.812125 C186.885167,44.864375 189.949633,45.3905 193.419733,45.3905 C196.968667,45.3905 200.034567,44.864375 202.6977,43.812125 C205.3594,42.7613125 207.5782,41.2634375 209.352667,39.281125 C211.127133,37.2988125 212.498833,34.95425 213.4262,32.202875 C214.355,29.4515 214.7979,26.4169375 214.7979,23.0991875 C214.838033,19.6606875 214.1529,15.1699375 213.023433,12.946125 Z"/>
    <path fill="#FFF" d="M21.5177898,76.6428571 L9.81058032,76.6428571 L8.12087999,81.4230769 L1,81.4230769 L11.8623593,52.5769231 L19.5464727,52.5769231 L30.449063,81.4230769 L23.2074901,81.4230769 L21.5177898,76.6428571 Z M19.305087,70.3379121 L17.293539,64.6098901 C16.4084578,62.2197802 15.7647625,60.4065934 15.7245315,60.3653846 L15.6038386,60.3653846 C15.5636077,60.4065934 14.9199123,62.1785714 14.0348312,64.5686813 L12.0232831,70.3379121 L19.305087,70.3379121 Z M53.9784276,71.0796703 L60.6165361,72.8928571 C58.5245261,78.4972527 53.3347323,82 47.2196263,82 C38.8113556,82 32.6157877,75.9423077 32.6157877,66.9175824 C32.6157877,58.1401099 38.8113556,52 47.2196263,52 C53.6968109,52 58.4440642,55.6675824 60.3349194,60.3241758 L53.6565799,62.1785714 C52.2082654,59.8708791 49.9151006,58.510989 46.8977786,58.510989 C42.3114491,58.510989 39.41482,61.9725275 39.41482,67 C39.41482,72.1098901 42.5126039,75.4478022 46.8575476,75.4478022 C50.558796,75.4478022 52.8519607,73.4697802 53.9784276,71.0796703 Z M83.7033601,76.6428571 L71.9961507,76.6428571 L70.3064503,81.4230769 L63.1855703,81.4230769 L74.0479296,52.5769231 L81.7320431,52.5769231 L92.6346333,81.4230769 L85.3930605,81.4230769 L83.7033601,76.6428571 Z M81.4906573,70.3379121 L79.4791093,64.6098901 C78.5940282,62.2197802 77.9503328,60.4065934 77.9101018,60.3653846 L77.789409,60.3653846 C77.749178,60.4065934 77.1054826,62.1785714 76.2204015,64.5686813 L74.2088535,70.3379121 L81.4906573,70.3379121 Z M97.1347537,52.5769231 L109.12358,52.5769231 C117.531851,52.5769231 123.968804,58.4285714 123.968804,67.1236264 C123.968804,75.8598901 117.49162,81.4230769 109.163811,81.4230769 L97.1347537,81.4230769 L97.1347537,52.5769231 Z M103.893555,74.9945055 L108.761501,74.9945055 C112.945521,74.9945055 117.169772,72.8104396 117.169772,67.1236264 C117.169772,61.478022 112.945521,59.0054945 108.761501,59.0054945 L103.893555,59.0054945 L103.893555,74.9945055 Z M129.072389,81.4230769 L129.072389,52.5769231 L149.590179,52.5769231 L149.590179,59.0054945 L135.83119,59.0054945 L135.83119,63.9505495 L145.969392,63.9505495 L145.969392,69.7197802 L135.83119,69.7197802 L135.83119,74.9945055 L149.791334,74.9945055 L149.791334,81.4230769 L129.072389,81.4230769 Z M177.062178,81.4230769 L177.062178,74.3763736 C177.062178,67.5357143 177.142639,64.1565934 177.142639,64.1153846 C177.021947,64.1565934 175.654094,66.7527473 174.286241,69.2252747 L171.550536,74.293956 L167.768826,74.293956 L165.03312,69.3076923 C163.625037,66.7527473 162.297415,64.1565934 162.257184,64.1153846 L162.136491,64.1153846 C162.136491,64.1565934 162.216953,67.5357143 162.216953,74.3763736 L162.216953,81.4230769 L155.458152,81.4230769 L155.458152,52.5769231 L162.619263,52.5769231 L169.699912,65.4752747 L169.820605,65.4752747 L176.941485,52.5769231 L183.820979,52.5769231 L183.820979,81.4230769 L177.062178,81.4230769 Z M205.499719,70.0494505 L205.499719,81.4230769 L198.740918,81.4230769 L198.740918,70.0494505 L188.240637,52.5769231 L196.045444,52.5357143 L200.390387,60.4065934 C201.396161,62.2197802 202.241012,63.7857143 202.281243,63.8269231 L202.401935,63.8269231 C202.442166,63.7857143 203.287017,62.1785714 204.292791,60.4065934 L208.798658,52.5769231 L216,52.5769231 L205.499719,70.0494505 Z"/>
  </g>
</svg>
