<svg xmlns="http://www.w3.org/2000/svg" width="150" height="32" viewBox="0 0 150 32">
  <path fill="#B3DC20" d="M12.186,0.338 C13.874,0.338 15.591,0.478 17.28,0.76 C18.968,1.041 20.516,1.66 21.867,2.59 C23.246,3.518 24.343,4.84 25.216,6.585 C26.088,8.33 26.51,10.61 26.51,13.48 L26.51,30.76 C25.497,30.957 24.597,31.07 23.78,31.126 C22.964,31.182 22.26,31.21 21.642,31.21 C20.9095914,31.2069484 20.1774997,31.1789322 19.447,31.126 C18.63,31.069 17.73,30.929 16.717,30.76 L16.717,14.522 C16.717,12.467 16.323,11.004 15.563,10.132 C14.803,9.259 13.621,8.809 12.045,8.809 C11.5925915,8.8068069 11.1408619,8.84428372 10.695,8.921 C10.215,9.006 9.906,9.091 9.794,9.146 L9.794,30.788 C8.78,30.985 7.88,31.098 7.064,31.154 C6.248,31.21 5.544,31.238 4.925,31.238 C4.19259143,31.2349484 3.4604997,31.2069322 2.73,31.154 C1.914,31.098 1.013,30.957 0,30.788 L0,2.364 C1.35,1.914 2.983,1.435 4.925,1.014 C6.867,0.562 9.287,0.337 12.185,0.337 L12.186,0.338 Z M41.088,18.968 C41.51,20.544 42.242,21.67 43.311,22.318 C44.381,22.964 45.76,23.302 47.505,23.302 C48.63,23.302 49.869,23.162 51.275,22.908 C52.6778055,22.6258639 54.0530977,22.2209725 55.385,21.698 C55.919,22.711 56.398,23.893 56.792,25.272 C57.186,26.651 57.411,28.114 57.467,29.606 C54.034,30.872 50.516,31.52 46.942,31.52 C44.156,31.52 41.792,31.126 39.794,30.366 C37.795,29.606 36.191,28.536 34.925,27.158 C33.659,25.778 32.758,24.146 32.139,22.261 C31.548,20.375 31.239,18.321 31.239,16.069 C31.239,13.874 31.548,11.819 32.167,9.878 C32.787,7.936 33.715,6.276 34.953,4.841 C36.191,3.405 37.739,2.28 39.568,1.463 C41.426,0.647 43.565,0.225 46.041,0.225 C48.096,0.225 49.897,0.563 51.501,1.266 C53.105,1.97 54.456,2.926 55.581,4.137 C56.707,5.347 57.551,6.811 58.143,8.527 C58.733,10.244 59.043,12.101 59.043,14.099 C59.043,15.141 58.987,16.069 58.903,16.914 C58.818,17.73 58.705,18.434 58.649,18.968 L41.09,18.968 L41.088,18.968 Z M45.732,7.57 C44.493,7.57 43.424,7.964 42.552,8.724 C41.651,9.484 41.144,10.694 41.004,12.298 L50.263,12.298 C50.178,10.948 49.784,9.822 49.024,8.921 C48.236,8.021 47.139,7.571 45.732,7.571 L45.732,7.57 Z M106.97,22.683 L117.89,22.683 C118.086,23.443 118.199,24.174 118.255,24.822 C118.366528,26.1045801 118.366528,27.3944199 118.255,28.677 C118.199,29.353 118.058,30.084 117.889,30.844 L99.062,30.844 C98.5694116,30.8442655 98.0969222,30.6487031 97.7486095,30.3003905 C97.4002969,29.9520778 97.2047345,29.4795884 97.205,28.987 L97.26,0.957 C98.0828835,0.759400404 98.9201972,0.627650557 99.764,0.563 C100.559215,0.484514845 101.357928,0.446798802 102.157,0.45 C102.888,0.45 103.677,0.478 104.521,0.563 C105.365,0.647 106.209,0.788 106.997,0.957 L106.969,22.683 L106.97,22.683 Z M91.266,9.006 C89.719,5.882 86.961,5.994 85.244,6.529 C83.049,7.205 81.642,9.231 82.148,11.932 C82.373,13.058 82.627,14.634 82.627,16.042 C82.627,18.462 82.205,20.347 81.388,21.642 C80.572,22.964 79.306,23.612 77.589,23.612 C75.901,23.612 74.634,22.964 73.818,21.642 C73.002,20.319 72.608,18.462 72.608,16.042 C72.608,13.565 73.002,11.876 73.818,10.582 C74.55,9.4 75.619,8.668 77.083,8.555 C79.953,8.33 81.023,6.36 81.023,3.968 C81.023,2.448 79.784,0.281 77.054,0.225 C74.634,0.141 73.03,0.647 71.173,1.407 C69.315,2.167 67.767,3.237 66.529,4.615 C65.263,5.995 64.334,7.683 63.687,9.625 C63.039,11.567 62.73,13.734 62.73,16.069 C62.73,18.377 63.04,20.488 63.687,22.402 C64.334,24.315 65.263,25.947 66.529,27.326 C67.795,28.706 69.343,29.746 71.173,30.478 C73.03,31.21 75.169,31.576 77.589,31.576 C80.066,31.576 82.205,31.21 84.062,30.478 C85.919,29.747 87.467,28.705 88.705,27.326 C89.944,25.947 90.901,24.316 91.548,22.402 C92.195,20.488 92.505,18.377 92.505,16.069 C92.505,13.677 92.026,10.553 91.266,9.006 Z M148.621,9.006 C147.073,5.882 144.315,5.994 142.598,6.529 C140.403,7.205 138.996,9.231 139.503,11.932 C139.728,13.058 139.981,14.634 139.981,16.042 C139.981,18.462 139.559,20.347 138.743,21.642 C137.927,22.964 136.66,23.612 134.943,23.612 C133.255,23.612 131.989,22.964 131.173,21.642 C130.356,20.319 129.963,18.462 129.963,16.042 C129.963,13.565 130.356,11.876 131.173,10.582 C131.904,9.4 132.973,8.668 134.437,8.555 C137.307,8.33 138.377,6.36 138.377,3.968 C138.377,2.448 137.139,0.281 134.409,0.225 C131.989,0.141 130.385,0.647 128.527,1.407 C126.67,2.167 125.122,3.237 123.884,4.615 C122.617,5.995 121.689,7.683 121.041,9.625 C120.394,11.567 120.084,13.734 120.084,16.069 C120.084,18.377 120.394,20.488 121.041,22.402 C121.689,24.315 122.617,25.947 123.884,27.326 C125.15,28.706 126.698,29.746 128.527,30.478 C130.385,31.21 132.523,31.576 134.944,31.576 C137.42,31.576 139.559,31.21 141.417,30.478 C143.274,29.747 144.822,28.705 146.06,27.326 C147.298,25.947 148.255,24.316 148.902,22.402 C149.55,20.488 149.859,18.377 149.859,16.069 C149.887,13.677 149.409,10.553 148.621,9.006 Z"/>
</svg>
