<svg xmlns="http://www.w3.org/2000/svg" width="11" height="21" viewBox="0 0 11 21">
  <path fill="#FFF" fill-rule="evenodd" d="M1292.00781,2540.49999 L1292.00781,2531.5547 L1289,2531.5547 L1289,2528.00002 L1292.00781,2528.00002 L1292.00781,2525.18753 C1292.00781,2523.70316 1292.42447,2522.55082 1293.2578,2521.73051 C1294.09113,2520.9102 1295.1979,2520.50004 1296.57811,2520.50004 C1297.6979,2520.50004 1298.60935,2520.55212 1299.31248,2520.65629 L1299.31248,2523.82035 L1297.43748,2523.82035 C1296.73436,2523.82035 1296.25259,2523.9766 1295.99217,2524.2891 C1295.78384,2524.54951 1295.67967,2524.96618 1295.67967,2525.53909 L1295.67967,2528.00002 L1298.99998,2528.00002 L1298.53123,2531.5547 L1295.67967,2531.5547 L1295.67967,2540.49999 L1292.00781,2540.49999 Z" transform="translate(-1289 -2520)"/>
</svg>
