<svg xmlns="http://www.w3.org/2000/svg" width="20" height="17" viewBox="0 0 20 17">
  <path fill="#FFF" fill-rule="evenodd" d="M1260.92964,2526.43753 C1260.95569,2526.54169 1260.96871,2526.71096 1260.96871,2526.94534 C1260.96871,2528.82033 1260.51298,2530.63023 1259.60152,2532.37501 C1258.66403,2534.22397 1257.34892,2535.69532 1255.65622,2536.78907 C1253.80727,2538.01302 1251.68487,2538.625 1249.28905,2538.625 C1246.99739,2538.625 1244.90104,2538.01302 1243,2536.78907 C1243.28646,2536.81511 1243.61198,2536.82813 1243.97656,2536.82813 C1245.8776,2536.82813 1247.58332,2536.24219 1249.09374,2535.07032 C1248.18228,2535.07032 1247.3815,2534.80339 1246.6914,2534.26954 C1246.00129,2533.73569 1245.52604,2533.06512 1245.26562,2532.25783 C1245.52604,2532.28387 1245.77343,2532.29689 1246.00781,2532.29689 C1246.37239,2532.29689 1246.73697,2532.25783 1247.10155,2532.1797 C1246.16405,2531.97137 1245.38281,2531.4896 1244.75781,2530.73439 C1244.13281,2529.97919 1243.82031,2529.11981 1243.82031,2528.15627 L1243.82031,2528.07815 C1244.39323,2528.41669 1245.0052,2528.59898 1245.65624,2528.62502 C1245.10937,2528.2344 1244.66666,2527.73961 1244.32812,2527.14065 C1243.98958,2526.54169 1243.82031,2525.88414 1243.82031,2525.168 C1243.82031,2524.45186 1244.01562,2523.76826 1244.40625,2523.11722 C1245.42187,2524.39326 1246.66536,2525.40888 1248.13671,2526.16409 C1249.60806,2526.9193 1251.17706,2527.33596 1252.84373,2527.41409 C1252.79164,2527.10159 1252.7656,2526.78909 1252.7656,2526.47659 C1252.7656,2525.74742 1252.94789,2525.06383 1253.31248,2524.42581 C1253.67706,2523.78779 1254.17185,2523.28649 1254.79685,2522.92191 C1255.42185,2522.55733 1256.09893,2522.37504 1256.82809,2522.37504 C1257.42705,2522.37504 1257.98043,2522.49222 1258.48824,2522.7266 C1258.99606,2522.96097 1259.44527,2523.27347 1259.8359,2523.6641 C1260.7734,2523.48181 1261.64579,2523.15629 1262.45308,2522.68754 C1262.14058,2523.65108 1261.54162,2524.40628 1260.65621,2524.95316 C1261.43746,2524.84899 1262.2187,2524.62764 1262.99995,2524.2891 C1262.42704,2525.12243 1261.73693,2525.83857 1260.92964,2526.43753 Z" transform="translate(-1243 -2522)"/>
</svg>
